<svg width="40" height="40" viewBox="0 0 32 32" fill="none" xmlns="http://www.w3.org/2000/svg">
<path d="M8.58667 13.52C10.2803 13.52 11.6533 12.147 11.6533 10.4533C11.6533 8.75965 10.2803 7.38666 8.58667 7.38666C6.89299 7.38666 5.52 8.75965 5.52 10.4533C5.52 12.147 6.89299 13.52 8.58667 13.52Z" fill="#80CE8F"/>
<path opacity="0.4" d="M8.26667 12.1067C8.24 12.1067 8.21333 12.1067 8.18667 12.1067C7.76 12.08 7.36 11.8667 7.17333 11.6533C6.42667 10.7733 6.66667 9.81333 7.2 9.28C7.81333 8.69333 8.69333 8.61333 9.46667 9.09333C9.97333 9.41333 10.2933 9.86666 10.4 10.3733C10.5067 10.8267 10.4 11.3333 10.1333 11.7333C10.08 11.7867 10 11.8133 9.94667 11.76C9.89333 11.7067 9.86667 11.6267 9.92 11.5733C10.1333 11.2267 10.2133 10.8267 10.1333 10.4267C10.0533 9.97333 9.76 9.6 9.30667 9.30666C8.8 8.98666 8 8.82666 7.38667 9.44C6.93333 9.89333 6.74667 10.6933 7.38667 11.44C7.49333 11.5733 7.84 11.7867 8.21333 11.8133C8.45333 11.84 8.64 11.76 8.77333 11.6267C9.06667 11.36 9.2 11.0933 9.17333 10.88C9.09333 10.48 8.56 10.24 8.56 10.24C8.48 10.2133 8.45333 10.1333 8.48 10.0533C8.50667 9.97333 8.58667 9.94666 8.66667 9.97333C8.69333 9.97333 9.36 10.2667 9.44 10.8C9.49333 11.12 9.33333 11.4667 8.96 11.7867C8.77333 12.0267 8.53333 12.1067 8.26667 12.1067Z" fill="#424242"/>
<path d="M5.2 20.08L4.42667 19.8667C4.02667 19.76 3.81333 19.36 3.89333 18.9867L4.82667 15.3867C4.93333 14.9867 5.33333 14.7733 5.70667 14.8533L6.48 15.0667C6.88 15.1733 7.09333 15.5733 7.01333 15.9467L6.08 19.5467C5.97333 19.9467 5.6 20.16 5.2 20.08Z" fill="#424242"/>
<path d="M5.94667 19.4133C5.78667 20.2133 5.28 22.6133 5.28 22.6133C5.25333 22.7733 5.22667 22.9067 5.25333 23.0667C5.25333 23.1467 5.25333 23.2267 5.28 23.3067C5.41333 24.16 6.16 24.8267 7.09333 24.8267H25.6267C26.6667 24.8267 27.5467 24.2133 27.92 23.3067C27.9467 23.2267 27.9733 23.1467 28 23.0667C28.08 22.8267 28.1067 22.5867 28.1067 22.32V19.0667C28.1067 18.6933 28.0267 18.3467 27.8667 18.0267C27.4667 17.1733 26.6133 16.5867 25.6 16.5867H22.1867C21.9467 16.5867 21.76 16.4267 21.7067 16.1867C21.7067 16.1867 20.8 14.0267 20.56 13.28C20.2133 12.16 19.28 11.3333 18.1067 11.3333H9.92C8.42667 11.3333 7.62667 12.3733 7.36 13.84L5.94667 19.4133Z" fill="#84C6FF"/>
<path d="M6.77333 22.16H5.36C5.17333 22.16 5.01333 21.9733 5.06667 21.7867L5.46666 20.0267C5.49333 19.8933 5.62667 19.7867 5.76 19.7867H7.17333C7.36 19.7867 7.52 19.9733 7.46666 20.16L7.06666 21.92C7.04 22.0533 6.90666 22.16 6.77333 22.16Z" fill="#FF957F"/>
<path d="M27.92 23.3067C27.5467 24.2133 26.64 24.8267 25.6267 24.8267H7.09333C6.16 24.8267 5.44 24.16 5.28 23.3067H27.92Z" fill="#42A0E5"/>
<path d="M10.8533 26.5333C12.2819 26.5333 13.44 25.3752 13.44 23.9467C13.44 22.5181 12.2819 21.36 10.8533 21.36C9.42476 21.36 8.26667 22.5181 8.26667 23.9467C8.26667 25.3752 9.42476 26.5333 10.8533 26.5333Z" fill="#424242"/>
<path d="M10.8533 25.12C11.5013 25.12 12.0267 24.5947 12.0267 23.9466C12.0267 23.2986 11.5013 22.7733 10.8533 22.7733C10.2053 22.7733 9.68 23.2986 9.68 23.9466C9.68 24.5947 10.2053 25.12 10.8533 25.12Z" fill="white"/>
<path d="M21.9733 26.5333C23.4019 26.5333 24.56 25.3752 24.56 23.9467C24.56 22.5181 23.4019 21.36 21.9733 21.36C20.5448 21.36 19.3867 22.5181 19.3867 23.9467C19.3867 25.3752 20.5448 26.5333 21.9733 26.5333Z" fill="#424242"/>
<path d="M21.9733 25.12C22.6213 25.12 23.1467 24.5947 23.1467 23.9466C23.1467 23.2986 22.6213 22.7733 21.9733 22.7733C21.3253 22.7733 20.8 23.2986 20.8 23.9466C20.8 24.5947 21.3253 25.12 21.9733 25.12Z" fill="white"/>
<path d="M28.1333 19.0667V19.2533C28.0533 19.2533 27.9467 19.28 27.8667 19.28C26.5333 19.28 25.4667 18.2133 25.4667 16.88C25.4667 16.7733 25.4667 16.6667 25.4933 16.5867H25.6267C26.64 16.5867 27.4933 17.1733 27.8933 18.0267C28.0533 18.3467 28.1333 18.6933 28.1333 19.0667Z" fill="#FFD460"/>
<path d="M12.88 16.5867H15.44C15.68 16.5867 15.8667 16.4 15.8667 16.16V13.1733C15.8667 12.9333 15.68 12.7467 15.44 12.7467H12.88C12.64 12.7467 12.4533 12.9333 12.4533 13.1733V16.16C12.4533 16.4 12.64 16.5867 12.88 16.5867Z" fill="#C6EBFF"/>
<path d="M20.1333 15.7867L19.2267 13.1467C19.1467 12.9067 18.9067 12.7467 18.6667 12.7467H17.1467C16.9067 12.7467 16.72 12.9333 16.72 13.1733V16.16C16.72 16.4 16.9067 16.5867 17.1467 16.5867H19.5733C19.9733 16.5867 20.2667 16.16 20.1333 15.7867Z" fill="#C6EBFF"/>
<path d="M11.6 13.1733C11.6 12.9333 11.4133 12.7467 11.1733 12.7467H9.36C9.06667 12.7467 8.8 12.96 8.77333 13.2533L8.13333 15.8933C8.08 16.24 8.37333 16.56 8.72 16.56H11.1467C11.3867 16.56 11.5733 16.3733 11.5733 16.1333V13.1733H11.6Z" fill="#C6EBFF"/>
<path d="M15.5467 18.2133H14.64C14.48 18.2133 14.32 18.08 14.32 17.9467C14.32 17.7867 14.4533 17.68 14.64 17.68H15.5467C15.7067 17.68 15.8667 17.8133 15.8667 17.9467C15.84 18.08 15.7067 18.2133 15.5467 18.2133Z" fill="#C6EBFF"/>
<path d="M19.84 18.2133H18.9333C18.7733 18.2133 18.6133 18.08 18.6133 17.9467C18.6133 17.7867 18.7467 17.68 18.9333 17.68H19.84C20 17.68 20.16 17.8133 20.16 17.9467C20.16 18.08 20.0267 18.2133 19.84 18.2133Z" fill="#C6EBFF"/>
<path d="M15.7067 5.62666H12.0533C11.7333 5.62666 11.4667 5.89333 11.4667 6.21333V8.85333C11.4667 9.17333 11.7333 9.44 12.0533 9.44H15.7067C16.0267 9.44 16.2933 9.17333 16.2933 8.85333V6.21333C16.2933 5.86666 16.0267 5.62666 15.7067 5.62666Z" fill="#FFBE75"/>
<path d="M17.84 7.51999H11.4133C10.9867 7.51999 10.64 7.86666 10.64 8.29332V10.56C10.64 10.9867 10.9867 11.3333 11.4133 11.3333H17.84C18.2667 11.3333 18.6133 10.9867 18.6133 10.56V8.29332C18.6133 7.86666 18.2667 7.51999 17.84 7.51999Z" fill="#FFD460"/>
<path d="M12.9867 5.62666C12.9867 5.54666 12.9067 5.46666 12.8267 5.46666H12.7467C12.6667 5.46666 12.5867 5.54666 12.5867 5.62666V7.51999H12.8V11.3333H13.2V7.51999H12.9867V5.62666Z" fill="#FF8F3D"/>
<path d="M15.3333 7.51999V5.62666C15.3333 5.54666 15.2533 5.46666 15.1733 5.46666H15.0933C15.0133 5.46666 14.9333 5.54666 14.9333 5.62666V7.51999H15.1467V11.3333H15.5467V7.51999H15.3333Z" fill="#FF8F3D"/>
</svg>
